<svg><defs>

<g id="add"><path d="M19 13h-6v6h-2v-6h-6v-2h6v-6h2v6h6v2z"/><path d="M0 0h24v24h-24z" fill="none"/></g>
<g id="add_circle_outline"><path d="M0 0h24v24h-24z" fill="none"/><path d="M13 7h-2v4h-4v2h4v4h2v-4h4v-2h-4v-4zm-1-5c-5.52 0-10 4.48-10 10s4.48 10 10 10 10-4.48 10-10-4.48-10-10-10zm0 18c-4.41 0-8-3.59-8-8s3.59-8 8-8 8 3.59 8 8-3.59 8-8 8z"/></g>
<g id="arrow_back"><path d="M0 0h24v24h-24z" fill="none"/><path d="M20 11h-12.17l5.59-5.59-1.42-1.41-8 8 8 8 1.41-1.41-5.58-5.59h12.17v-2z"/></g>
<g id="arrow_forward"><path d="M0 0h24v24h-24z" fill="none"/><path d="M12 4l-1.41 1.41 5.58 5.59h-12.17v2h12.17l-5.58 5.59 1.41 1.41 8-8z"/></g>
<g id="before"><path d="M15.41 7.41l-1.41-1.41-6 6 6 6 1.41-1.41-4.58-4.59z"/><path d="M0 0h24v24h-24z" fill="none"/></g>
<g id="check_box"><path d="M0 0h24v24H0z" fill="none"/><path d="M19 3H5c-1.11 0-2 .9-2 2v14c0 1.1.89 2 2 2h14c1.11 0 2-.9 2-2V5c0-1.1-.89-2-2-2zm-9 14l-5-5 1.41-1.41L10 14.17l7.59-7.59L19 8l-9 9z"/></g>
<g id="check_box_outline_blank"><path d="M19 5v14H5V5h14m0-2H5c-1.1 0-2 .9-2 2v14c0 1.1.9 2 2 2h14c1.1 0 2-.9 2-2V5c0-1.1-.9-2-2-2z"/><path d="M0 0h24v24H0z" fill="none"/></g>
<g id="cloud"><path d="M0 0h24v24h-24z" fill="none"/><path d="M19.35 10.04c-.68-3.45-3.71-6.04-7.35-6.04-2.89 0-5.4 1.64-6.65 4.04-3.01.32-5.35 2.87-5.35 5.96 0 3.31 2.69 6 6 6h13c2.76 0 5-2.24 5-5 0-2.64-2.05-4.78-4.65-4.96z"/></g>
<g id="cloud_circle"><path d="M0 0h24v24h-24z" fill="none"/><path d="M12 2c-5.52 0-10 4.48-10 10s4.48 10 10 10 10-4.48 10-10-4.48-10-10-10zm4.5 14h-8.5c-1.66 0-3-1.34-3-3s1.34-3 3-3l.14.01c.44-1.73 1.99-3.01 3.86-3.01 2.21 0 4 1.79 4 4h.5c1.38 0 2.5 1.12 2.5 2.5s-1.12 2.5-2.5 2.5z"/></g>
<g id="cloud_done"><path d="M0 0h24v24h-24z" fill="none"/><path d="M19.35 10.04c-.68-3.45-3.71-6.04-7.35-6.04-2.89 0-5.4 1.64-6.65 4.04-3.01.32-5.35 2.87-5.35 5.96 0 3.31 2.69 6 6 6h13c2.76 0 5-2.24 5-5 0-2.64-2.05-4.78-4.65-4.96zm-9.35 6.96l-3.5-3.5 1.41-1.41 2.09 2.08 5.18-5.17 1.41 1.41-6.59 6.59z"/></g>
<g id="cloud_download"><path d="M0 0h24v24h-24z" fill="none"/><path d="M19.35 10.04c-.68-3.45-3.71-6.04-7.35-6.04-2.89 0-5.4 1.64-6.65 4.04-3.01.32-5.35 2.87-5.35 5.96 0 3.31 2.69 6 6 6h13c2.76 0 5-2.24 5-5 0-2.64-2.05-4.78-4.65-4.96zm-2.35 2.96l-5 5-5-5h3v-4h4v4h3z"/></g>
<g id="cloud_off"><path d="M0 0h24v24h-24z" fill="none"/><path d="M19.35 10.04c-.68-3.45-3.71-6.04-7.35-6.04-1.48 0-2.85.43-4.01 1.17l1.46 1.46c.76-.4 1.63-.63 2.55-.63 3.04 0 5.5 2.46 5.5 5.5v.5h1.5c1.66 0 3 1.34 3 3 0 1.13-.64 2.11-1.56 2.62l1.45 1.45c1.27-.91 2.11-2.39 2.11-4.07 0-2.64-2.05-4.78-4.65-4.96zm-16.35-4.77l2.75 2.74c-3.19.14-5.75 2.76-5.75 5.99 0 3.31 2.69 6 6 6h11.73l2 2 1.27-1.27-16.73-16.73-1.27 1.27zm4.73 4.73l8 8h-9.73c-2.21 0-4-1.79-4-4s1.79-4 4-4h1.73z"/></g>
<g id="cloud_queue"><path d="M0 0h24v24h-24z" fill="none"/><path d="M19.35 10.04c-.68-3.45-3.71-6.04-7.35-6.04-2.89 0-5.4 1.64-6.65 4.04-3.01.32-5.35 2.87-5.35 5.96 0 3.31 2.69 6 6 6h13c2.76 0 5-2.24 5-5 0-2.64-2.05-4.78-4.65-4.96zm-.35 7.96h-13c-2.21 0-4-1.79-4-4s1.79-4 4-4h.71c.66-2.31 2.77-4 5.29-4 3.04 0 5.5 2.46 5.5 5.5v.5h1.5c1.66 0 3 1.34 3 3s-1.34 3-3 3z"/></g>
<g id="cloud_upload"><path d="M0 0h24v24h-24z" fill="none"/><path d="M19.35 10.04c-.68-3.45-3.71-6.04-7.35-6.04-2.89 0-5.4 1.64-6.65 4.04-3.01.32-5.35 2.87-5.35 5.96 0 3.31 2.69 6 6 6h13c2.76 0 5-2.24 5-5 0-2.64-2.05-4.78-4.65-4.96zm-5.35 2.96v4h-4v-4h-3l5-5 5 5h-3z"/></g>
<g id="edit"><path d="M3 17.25v3.75h3.75l11.06-11.06-3.75-3.75-11.06 11.06zm17.71-10.21c.39-.39.39-1.02 0-1.41l-2.34-2.34c-.39-.39-1.02-.39-1.41 0l-1.83 1.83 3.75 3.75 1.83-1.83z"/><path d="M0 0h24v24h-24z" fill="none"/></g>
<g id="delete"><path d="M6 19c0 1.1.9 2 2 2h8c1.1 0 2-.9 2-2v-12h-12v12zm13-15h-3.5l-1-1h-5l-1 1h-3.5v2h14v-2z"/><path d="M0 0h24v24h-24z" fill="none"/></g>
<g id="file_download"><path d="M19 9h-4v-6h-6v6h-4l7 7 7-7zm-14 9v2h14v-2h-14z"/><path d="M0 0h24v24h-24z" fill="none"/></g>
<g id="file_upload"><path d="M0 0h24v24h-24z" fill="none"/><path d="M9 16h6v-6h4l-7-7-7 7h4zm-4 2h14v2h-14z"/></g>
<g id="home"><path d="M10 20v-6h4v6h5v-8h3l-10-9-10 9h3v8z"/><path d="M0 0h24v24h-24z" fill="none"/></g>
<g id="menu"><path d="M3 18h18v-2h-18v2zm0-5h18v-2h-18v2zm0-7v2h18v-2h-18z"/><path d="M0 0h24v24h-24z" fill="none"/></g>
<g id="more_horiz"><path d="M0 0h24v24h-24z" fill="none"/><path d="M6 10c-1.1 0-2 .9-2 2s.9 2 2 2 2-.9 2-2-.9-2-2-2zm12 0c-1.1 0-2 .9-2 2s.9 2 2 2 2-.9 2-2-.9-2-2-2zm-6 0c-1.1 0-2 .9-2 2s.9 2 2 2 2-.9 2-2-.9-2-2-2z"/></g>
<g id="more_vert"><path d="M0 0h24v24h-24z" fill="none"/><path d="M12 8c1.1 0 2-.9 2-2s-.9-2-2-2-2 .9-2 2 .9 2 2 2zm0 2c-1.1 0-2 .9-2 2s.9 2 2 2 2-.9 2-2-.9-2-2-2zm0 6c-1.1 0-2 .9-2 2s.9 2 2 2 2-.9 2-2-.9-2-2-2z"/></g>
<g id="next"><path d="M10 6l-1.41 1.41 4.58 4.59-4.58 4.59 1.41 1.41 6-6z"/><path d="M0 0h24v24h-24z" fill="none"/></g>
<g id="person"><path d="M12 12c2.21 0 4-1.79 4-4s-1.79-4-4-4-4 1.79-4 4 1.79 4 4 4zm0 2c-2.67 0-8 1.34-8 4v2h16v-2c0-2.66-5.33-4-8-4z"/><path d="M0 0h24v24h-24z" fill="none"/></g>
<g id="remove"><path d="M19 13h-14v-2h14v2z"/><path d="M0 0h24v24h-24z" fill="none"/></g>
<g id="remove_circle_outline"><path d="M0 0h24v24h-24z" fill="none"/><path d="M7 11v2h10v-2h-10zm5-9c-5.52 0-10 4.48-10 10s4.48 10 10 10 10-4.48 10-10-4.48-10-10-10zm0 18c-4.41 0-8-3.59-8-8s3.59-8 8-8 8 3.59 8 8-3.59 8-8 8z"/></g>
<g id="search"><path d="M15.5 14h-.79l-.28-.27c.98-1.14 1.57-2.62 1.57-4.23 0-3.59-2.91-6.5-6.5-6.5s-6.5 2.91-6.5 6.5 2.91 6.5 6.5 6.5c1.61 0 3.09-.59 4.23-1.57l.27.28v.79l5 4.99 1.49-1.49-4.99-5zm-6 0c-2.49 0-4.5-2.01-4.5-4.5s2.01-4.5 4.5-4.5 4.5 2.01 4.5 4.5-2.01 4.5-4.5 4.5z"/><path d="M0 0h24v24h-24z" fill="none"/></g>
<g id="settings"><path d="M0 0h24v24h-24z" fill="none"/><path d="M19.43 12.98c.04-.32.07-.64.07-.98s-.03-.66-.07-.98l2.11-1.65c.19-.15.24-.42.12-.64l-2-3.46c-.12-.22-.39-.3-.61-.22l-2.49 1c-.52-.4-1.08-.73-1.69-.98l-.38-2.65c-.03-.24-.24-.42-.49-.42h-4c-.25 0-.46.18-.49.42l-.38 2.65c-.61.25-1.17.59-1.69.98l-2.49-1c-.23-.09-.49 0-.61.22l-2 3.46c-.13.22-.07.49.12.64l2.11 1.65c-.04.32-.07.65-.07.98s.03.66.07.98l-2.11 1.65c-.19.15-.24.42-.12.64l2 3.46c.12.22.39.3.61.22l2.49-1c.52.4 1.08.73 1.69.98l.38 2.65c.03.24.24.42.49.42h4c.25 0 .46-.18.49-.42l.38-2.65c.61-.25 1.17-.59 1.69-.98l2.49 1c.23.09.49 0 .61-.22l2-3.46c.12-.22.07-.49-.12-.64l-2.11-1.65zm-7.43 2.52c-1.93 0-3.5-1.57-3.5-3.5s1.57-3.5 3.5-3.5 3.5 1.57 3.5 3.5-1.57 3.5-3.5 3.5z"/></g>
<g id="settings_ethernet"><path d="M0 0h24v24h-24z" fill="none"/><path d="M7.77 6.76l-1.54-1.28-5.41 6.52 5.41 6.52 1.54-1.28-4.35-5.24 4.35-5.24zm-.77 6.24h2v-2h-2v2zm10-2h-2v2h2v-2zm-6 2h2v-2h-2v2zm6.77-7.52l-1.54 1.28 4.35 5.24-4.35 5.24 1.54 1.28 5.41-6.52-5.41-6.52z"/></g>
<g id="skip_next"><path d="M6 18l8.5-6L6 6v12zM16 6v12h2V6h-2z"/><path d="M0 0h24v24H0z" fill="none"/></g>
<g id="skip_previous"><path d="M6 6h2v12H6zm3.5 6l8.5 6V6z"/><path d="M0 0h24v24H0z" fill="none"/></g>


<g id="script"><path d="M14,20A2,2 0 0,0 16,18V5H9A1,1 0 0,0 8,6V16H5V5A3,3 0 0,1 8,2H19A3,3 0 0,1 22,5V6H18V18L18,19A3,3 0 0,1 15,22H5A3,3 0 0,1 2,19V18H12A2,2 0 0,0 14,20Z" /><path d="M0 0h24v24H0z" fill="none"/></g>
<g id="source-fork"><path d="M16,19A4,4 0 0,1 12,23A4,4 0 0,1 8,19C8,17.14 9.27,15.57 11,15.13C11,14.47 11,13.82 10.29,12.78C9.57,11.74 8.14,10.33 6.71,8.91C6.03,9.03 5.31,9 4.61,8.73C2.54,8 1.47,5.68 2.22,3.6C3,1.53 5.27,0.46 7.35,1.21C9.42,1.97 10.5,4.26 9.74,6.34C9.5,7.04 9.06,7.62 8.5,8.06C8.93,9.44 12,12 12,12.5C12,12 15.07,9.44 15.5,8.06C14.94,7.62 14.5,7.04 14.26,6.34C13.5,4.26 14.58,1.97 16.65,1.21C18.73,0.46 21,1.53 21.78,3.6C22.53,5.68 21.46,8 19.39,8.73C18.69,9 17.97,9.03 17.29,8.91C15.86,10.33 14.43,11.74 13.71,12.78C13,13.82 13,14.47 13,15.13C14.73,15.57 16,17.14 16,19M12,17A2,2 0 0,0 10,19A2,2 0 0,0 12,21A2,2 0 0,0 14,19A2,2 0 0,0 12,17M6.66,3.09C5.63,2.72 4.5,3.25 4.1,4.29C3.72,5.33 4.26,6.47 5.3,6.85C6.33,7.23 7.5,6.69 7.86,5.66C8.24,4.62 7.7,3.47 6.66,3.09M17.34,3.09C16.3,3.47 15.76,4.62 16.14,5.66C16.5,6.69 17.67,7.23 18.7,6.85C19.74,6.47 20.28,5.33 19.9,4.29C19.5,3.25 18.37,2.72 17.34,3.09Z" /><path d="M0 0h24v24H0z" fill="none"/></g>
<g id="function"><path d="M15.6,5.29C14.5,5.19 13.53,6 13.43,7.11L13.18,10H16V12H13L12.56,17.07C12.37,19.27 10.43,20.9 8.23,20.7C6.92,20.59 5.82,19.86 5.17,18.83L6.67,17.33C6.91,18.07 7.57,18.64 8.4,18.71C9.5,18.81 10.47,18 10.57,16.89L11,12H8V10H11.17L11.44,6.93C11.63,4.73 13.57,3.1 15.77,3.3C17.08,3.41 18.18,4.14 18.83,5.17L17.33,6.67C17.09,5.93 16.43,5.36 15.6,5.29Z" /><path d="M0 0h24v24H0z" fill="none"/></g>


</defs></svg>
